<svg width="0" height="0" class="hidden">
  <symbol xmlns="http://www.w3.org/2000/svg" viewBox="0 0 20 9.969" id="arrow">
    <path d="M19.86 4.661L15.32.134a.454.454 0 00-.64-.049.446.446 0 00-.05.638.18.18 0 00.05.049l3.77 3.758h-18a.453.453 0 000 .9h18l-3.77 3.753a.447.447 0 00-.05.639.455.455 0 00.64.049c.02-.015.03-.032.05-.049l4.54-4.527a.446.446 0 000-.634z" fill-rule="evenodd"></path>
  </symbol>
  <symbol xmlns="http://www.w3.org/2000/svg" viewBox="0 0 29.938 15.97" id="down">
    <path d="M29.669.27a1.067 1.067 0 00-1.5 0L14.986 13.44 1.769.27a1.06 1.06 0 00-1.5 1.5l13.932 13.89a1.024 1.024 0 00.75.31 1.067 1.067 0 00.75-.31L29.633 1.77a1.039 1.039 0 00.036-1.5z" fill-rule="evenodd"></path>
  </symbol>
  <symbol xmlns="http://www.w3.org/2000/svg" viewBox="0 0 11 21" id="fb">
    <path d="M10.586 0H7.947C4.983 0 3.068 2.03 3.068 5.17v2.38H.415A.421.421 0 000 7.98v3.45a.421.421 0 00.415.43h2.652v8.71a.421.421 0 00.415.43h3.461a.421.421 0 00.415-.43v-8.71h3.1a.421.421 0 00.415-.43V7.98a.434.434 0 00-.122-.3.412.412 0 00-.293-.13h-3.1V5.53a1.2 1.2 0 011.45-1.46h1.777A.428.428 0 0011 3.64V.43a.428.428 0 00-.414-.43z" fill-rule="evenodd"></path>
  </symbol>
  <symbol xmlns="http://www.w3.org/2000/svg" viewBox="0 0 20 20" id="search">
    <path d="M19.81 18.98l-4.86-4.86a8.506 8.506 0 10-.84.842l4.86 4.86a.61.61 0 00.42.177.574.574 0 00.42-.177.6.6 0 000-.842zM1.19 8.528a7.33 7.33 0 117.33 7.335 7.338 7.338 0 01-7.33-7.335z" fill-rule="evenodd"></path>
  </symbol>
  <symbol xmlns="http://www.w3.org/2000/svg" viewBox="0 0 15.969 15.06" id="star">
    <path d="M15.292 5.14l-4.407-.41a.771.771 0 01-.631-.46L8.676.48a.761.761 0 00-1.4 0L5.71 4.27a.755.755 0 01-.631.46l-4.407.41a.751.751 0 00-.429 1.31l3.321 2.89a.728.728 0 01.24.73l-1 4.05a.757.757 0 001.124.82l3.674-2.13a.758.758 0 01.77 0l3.675 2.13a.754.754 0 001.123-.82l-.984-4.05a.726.726 0 01.24-.73l3.32-2.89a.76.76 0 00-.454-1.31z" fill-rule="evenodd"></path>
  </symbol>
  <symbol xmlns="http://www.w3.org/2000/svg" viewBox="0 0 22 18" id="tw">
    <path d="M21.393.33a9.191 9.191 0 01-2.868 1.11A4.469 4.469 0 0015.232 0a4.532 4.532 0 00-4.514 4.54 4.585 4.585 0 00.117 1.04 12.787 12.787 0 01-9.3-4.75 4.577 4.577 0 001.4 6.07 4.562 4.562 0 01-2.044-.57v.05a4.539 4.539 0 003.62 4.46 4.648 4.648 0 01-1.189.16 4.765 4.765 0 01-.85-.08 4.537 4.537 0 004.215 3.16 9.064 9.064 0 01-5.6 1.94 9.559 9.559 0 01-1.077-.06A12.821 12.821 0 0019.769 5.07l-.015-.59a9.15 9.15 0 002.256-2.35 9.029 9.029 0 01-2.591.72A4.6 4.6 0 0021.393.33z" fill-rule="evenodd"></path>
  </symbol>
  <symbol xmlns="http://www.w3.org/2000/svg" viewBox="0 0 27 19" id="yt">
    <path d="M27 4.06A4.044 4.044 0 0022.97 0H4.04A4.052 4.052 0 000 4.06v10.88A4.052 4.052 0 004.04 19h18.93A4.044 4.044 0 0027 14.94V4.06zM10.8 14.09V3.87l7.72 5.11z" fill-rule="evenodd"></path>
  </symbol>
</svg>